<svg width="593" height="129" xmlns="http://www.w3.org/2000/svg" xmlns:xlink="http://www.w3.org/1999/xlink"><defs><path id="a" d="M.446.104h65.178V129H.446z"/></defs><g fill="none" fill-rule="evenodd"><g transform="translate(348)"><mask id="b" fill="#fff"><use xlink:href="#a"/></mask><path d="M8.599 50.893c1.41-.378.85-3.435.85-3.435-.362-2.019-.145-3.85-.145-3.85 1.029-2.132.848-5.756.848-5.756.489-.641 5.312-4.849 5.312-4.849l.09 1.113c-1.118 2.793.054 4.511.054 4.511-.36.377-.83 2.698-.83 2.698l-1.319 2.227c-.289.699-3.288 5.227-3.288 5.227-1.481 3.095.091 4.208.091 4.208l-.074.207c-.631-.905-.884-.829-.884-.829.306-.453-.705-1.472-.705-1.472zm1.211 7.775h.216c.126-.057.236.887.236.887.307.528-.091 1.641-.091 1.641l-.162-.018c.216-.774-.199-2.51-.199-2.51zm1.698-.396s.163-.095.216-.02c0 0 .072.34-.162.454l-.054-.434zm15.569 30.99c.281.074.07-2.872.07-2.872.705 0 1.27-5.671 1.27-5.671.422 3.24 2.82 9.501 2.82 9.501-.353-.073-2.539 3.536-2.539 3.536.212-.958-1.621-4.494-1.621-4.494zm13.97-70.266l.934-.828.513-.587c.046.147.606.488.606.488l.421.683c-.234.829 2.055.585 2.055.585.606.391 2.007 0 2.007 0 .421.439 1.914 1.317 1.914 1.317.28.487 2.194.731 2.194.731-.094 1.17 1.961 2.634 1.961 2.634l.467.974c-.7.196-.513 1.025-.513 1.025-.607-.44-2.195-.097-2.195-.097 0-.586-.84-.409-.84-.409-.281-.7-1.074-.226-1.074-.226-2.24-1.511-2.895-.585-2.895-.585-.093-.146-3.221-1.609-3.221-1.609-.326-.097-2.241-1.658-2.241-1.658.56-2.242-.093-2.438-.093-2.438zM1.267 41.975s.988 4.051 1.27 8.028c0 0 .564 2.357 1.198 3.978 0 0 1.693 2.799 2.539 3.241 0 0 2.327 1.399 2.327 2.136 0 0 .282 1.399.282 2.063 0 0 .211 1.251 1.057.662 0 0 .071.811.847.369 0 0-.917 5.892 0 6.703 0 0 4.583 18.708 6.63 23.569l2.961 9.355s-1.129.957-1.058 1.62l-2.751.516-.141-.442s-3.032-.442-2.75 1.989c0 0-.212 6.703 2.186 5.745 0 0 .353 2.725-.141 4.713 0 0 .846 9.724 4.726 8.84 0 0 1.903-3.02.422-5.893 0 0 .212-1.693-.141-1.693 0 0-.282-.885 1.128-1.62 0 0 1.128 2.061 1.339 3.46 0 0-.916 2.136-1.198 2.8 0 0-1.692 3.535-1.057 5.818 0 0 4.724 3.094 7.05-1.252 0 0 1.763-1.988.353-3.536 0 0 .072-1.03.142-1.325l.635-.147s2.327-2.137 1.481-3.094c0 0 4.019-4.493-.07-5.893 0 0 1.197-2.503.845-2.946 0 0 5.853-5.229 6.982-7.513 0 0 4.935-6.555 5.218-8.028 0 0 1.34-2.062.846-3.388L42.73 79.762s-.282-2.579-.844-3.243c0 0-.142-2.43-.918-3.239 0 0-.282-2.284-.846-2.653 0 0-.352-1.694-.987-1.988 0 0 .493-1.621.282-2.284 0 0 2.327-3.757-.494-5.156 0 0-2.679-1.694-1.904-2.062l-.141-.884s2.257-1.546 2.257-2.799c0 0 2.961-6.997 3.738-8.47 0 0 1.409-3.904 1.761-4.419l.142-6.114s-.494-2.136 2.257-1.842l17.84-.883s1.482-2.284.282-3.757c0 0-.352-4.272-2.82-5.451l-3.667-3.314s-1.834-2.137-2.327-2.137c0 0-.988-1.03-1.128-1.325 0 0-2.045-2.136-3.103-2.284 0 0-2.187-1.399-2.539-1.031l-4.16-2.283s.423-.736-.423-.81c0 0 1.552-3.094 1.903-3.61 0 0-.211-2.283-.634-3.093 0 0 .07-3.093-4.02-3.904 0 0-3.877-2.21-6.557 1.694 0 0-1.129.222-1.481 2.579l-.494 3.093s-1.552-1.253-1.199 2.356c0 0-.282 2.505 1.058 1.916l-.282 2.209-.423 1.105s-.706-.221-1.622 1.915c0 0-5.289-.294-6.206 0 0 0-5.571-.699-10.365 3.61 0 0-8.463 5.966-9.521 8.249 0 0-7.051 4.935-3.878 12.522z" fill="#1A1919" mask="url(#b)"/></g><path d="M348.213 32.428h-26.999v9.883a368.863 368.863 0 0 1-2.735-6.323l-1.5-3.56h-35.012v5.41c-5.927-4.701-13.542-7.085-22.754-7.085-7.596 0-18.008 1.816-25.873 10.05v-8.375h-66.186v.503c-5.734-1.893-11.263-2.178-14.064-2.178-8.788 0-16.203 2.978-21.442 8.611-1.946 2.092-3.534 4.498-4.756 7.166a34.238 34.238 0 0 0-1.757-2.668c-6.383-8.698-15.985-13.109-28.541-13.109-9.093 0-22.228 2.58-30.188 15.687-1.524-3.94-4.235-7.697-8.924-10.324-5.845-3.274-12.812-3.694-18.229-3.694h-.001c-.381 0-.759.002-1.132.006H0v16.307l5.57.24a.59.59 0 0 1 .042.002c.005.298.007.629.007.993v53.815c0 .365-.002.697-.007.995a.619.619 0 0 1-.043.002l-5.569.24v16.306h40.312c5.404 0 13.325-.472 19.684-4.55 3.202-2.052 5.657-4.762 7.376-8.091.257.381.514.762.783 1.128 6.346 8.627 16.18 13.187 28.439 13.187 12.447 0 22-4.381 28.404-13.016l.203 3.616 1.857 1.612c5.786 5.022 14.325 7.788 24.044 7.788h.07c12.472-.15 21.572-4.967 26.529-13.663v11.989h45.093v-16.351l-5.616-.197a42.24 42.24 0 0 1-1.207-.056 66.492 66.492 0 0 1-.006-.939V56.303c.735 2.211 1.382 4.738 1.922 6.978l1.074 4.455h3.601a88.961 88.961 0 0 0-.462 9.142c0 14.03 2.919 25.112 8.674 32.937 6.345 8.627 16.18 13.187 28.439 13.187 9.026 0 16.523-2.314 22.409-6.873v5.199h32.818v-16.1l-5.35-.432-2.557-.207a14.78 14.78 0 0 1-.085-.586c-.412-3.864-.566-8.868-.566-18.416v-4.461c5.601 11.833 11.133 23.744 17.164 36.82l1.56 3.382h23.462V68.17c0-9.634.07-14.624.488-18.726l.006-.052.004-.052c.011-.131.022-.254.034-.369l.21-.022 5.223-.538V32.428h-5.82" fill="#1A1919"/><path d="M34.087 70.782c6.373 0 7.71-6.946 7.71-12.773 0-11.125-4.968-12.326-7.105-12.326-2.868 0-2.868.502-2.868 2.167v22.932h2.263zm-2.263 31.775c0 3.969 1.216 5.516 4.338 5.516 5.801 0 7.018-7.614 7.018-14.001 0-6.922-2.359-15.006-9.007-15.006h-2.349v23.491zm-26.853 13.8v-6.574l.812-.034c4.582-.198 4.807-.477 4.807-5.963V49.971c0-5.487-.225-5.765-4.807-5.963l-.812-.034v-6.575h33.18a98.54 98.54 0 0 1 1.1-.006c4.813 0 10.959.348 15.801 3.06 5.409 3.029 8.152 8.485 8.152 16.216 0 8.634-4.025 14.579-11.676 17.323 9.065 2.892 13.837 10.058 13.837 20.861 0 19.275-14.298 21.504-25.053 21.504H4.971z" fill="#FFFFFE"/><path d="M32.672 79.915h1.502c3.763 0 8.157 3.708 8.157 14.157 0 6-1.07 13.152-6.169 13.152-2.263 0-3.49-.744-3.49-4.667V79.915zm.09-33.153c.103-.057.532-.23 1.93-.23 1.881 0 6.256 1.118 6.256 11.477 0 5.44-1.19 11.924-6.861 11.924h-1.415V47.85c0-.736.056-.997.09-1.088zm6.491-10.218c-.378 0-.752.003-1.121.007l-34.01-.001v8.237l1.625.069c1.517.066 3.119.197 3.5.674.456.572.494 2.507.494 4.44v53.815c0 1.933-.038 3.869-.494 4.441-.381.478-1.983.609-3.501.674l-1.624.07v8.236h36.189c11.12 0 25.903-2.318 25.903-22.353 0-10.367-4.245-17.51-12.344-20.907 6.683-3.151 10.183-9.045 10.183-17.277 0-20.125-18.018-20.125-24.8-20.125zm-3.091 72.377c4.236 0 7.867-3.572 7.867-14.849 0-7.593-2.767-15.854-9.855-15.854h-3.199v24.339c0 3.685 1.038 6.364 5.187 6.364zm-5.187-37.29h3.112c6.743 0 8.559-6.923 8.559-13.622 0-11.053-4.928-13.174-7.954-13.174-3.371 0-3.717.893-3.717 3.015v23.781zm8.277-33.389c10.223 0 23.103 1.727 23.103 18.427 0 9.044-4.581 14.962-13.312 17.194v.335c5.964 1.34 15.474 5.472 15.474 20.655 0 17.864-12.362 20.655-24.206 20.655H5.819v-4.912c5.187-.224 5.62-1.005 5.62-6.811V49.97c0-5.805-.433-6.586-5.62-6.809v-4.913H38.15c.363-.004.731-.006 1.102-.006z" fill="#777776"/><path d="M96.594 44.009c-6.231 0-9.525 11.366-9.525 32.869 0 21.811 3.205 32.87 9.525 32.87 6.321 0 9.525-11.059 9.525-32.87 0-21.503-3.293-32.869-9.525-32.869zm0 74.023c-21.027 0-32.142-14.231-32.142-41.154 0-26.923 11.115-41.154 32.142-41.154 21.328 0 32.143 13.846 32.143 41.154 0 26.923-11.115 41.154-32.143 41.154z" fill="#FFFFFE"/><path d="M96.594 108.899c-7.171 0-8.676-17.413-8.676-32.021 0-27.86 5.436-32.02 8.676-32.02 3.241 0 8.677 4.16 8.677 32.02 0 14.608-1.506 32.021-8.677 32.021zm0-74.024c-15.05 0-32.99 7.288-32.99 42.003 0 13.133 2.648 23.392 7.872 30.495 5.616 7.636 14.067 11.507 25.118 11.507 21.583 0 32.991-14.524 32.991-42.002 0-13.259-2.615-23.547-7.774-30.577-5.563-7.581-14.047-11.426-25.217-11.426zm0 75.721c8.991 0 10.374-18.645 10.374-33.718 0-14.179-1.383-33.717-10.374-33.717-8.99 0-10.373 19.538-10.373 33.717 0 15.073 1.383 33.718 10.373 33.718zm0-74.023c21.871 0 31.294 15.184 31.294 40.305 0 25.01-9.509 40.305-31.294 40.305-21.611 0-31.293-15.407-31.293-40.305 0-25.009 9.595-40.305 31.293-40.305z" fill="#777776"/><path d="M151.102 118.032c-8.522 0-15.903-2.334-20.785-6.572l-.271-.235-1.367-24.254h5.476l.199.568c5.457 15.572 10.517 22.007 17.464 22.209l.185.002c4.126 0 6.64-3.111 6.722-8.323-.077-4.353-1.429-9.496-10.868-14.418-11.379-5.964-18.956-12.645-18.956-25.874 0-15.674 9.268-25.411 24.189-25.411 3.605 0 12.324.517 19.035 5.057v-3.382h56.245v25.367h-5.494l-.157-.65c-3.072-12.747-5.485-16.433-10.758-16.433h-.967v58.103c0 5.318 0 5.752 6.01 5.962l.819.029v6.58h-35.152v-6.58l.819-.029c6.011-.21 6.011-.644 6.011-5.962V45.683h-.967c-5.273 0-7.686 3.686-10.759 16.433l-.157.65-10.591-.007-.178-.611c-4.652-15.984-9.478-18.139-13.586-18.139-3.784 0-6.326 3.383-6.326 8.418 0 5.867 5.421 9.325 11.28 12.189 9.006 4.447 18.625 10.557 18.803 26.879-.211 16.921-9.412 26.338-25.908 26.537h-.01" fill="#FFFFFE"/><path d="M153.09 34.875c-15.21 0-25.038 10.308-25.038 26.26 0 13.655 7.759 20.519 19.409 26.625 9.028 4.707 10.337 9.555 10.415 13.682-.033 1.788-.561 7.459-5.873 7.459l-.171-.002c-6.522-.189-11.357-6.459-16.677-21.641l-.398-1.136h-6.976l1.398 24.793.04.716.542.47c5.036 4.372 12.615 6.779 21.341 6.779 17.05-.205 26.549-9.92 26.766-27.355-.182-16.842-10.043-23.111-19.272-27.668-7.68-3.755-10.811-7.065-10.811-11.43 0-4.598 2.15-7.569 5.478-7.569 6.759 0 10.249 8.86 12.771 17.528l.356 1.221 1.272.002 5.31.005h5.315l.313-1.299c2.951-12.243 5.179-15.783 9.934-15.783h.118v57.253c0 1.98-.042 3.799-.545 4.326-.545.57-2.555.716-4.646.789l-1.638.057v8.249h36.849v-8.249l-1.638-.057c-2.091-.073-4.101-.219-4.646-.789-.504-.527-.545-2.346-.545-4.326V46.532h.118c4.754 0 6.982 3.54 9.934 15.783l.313 1.299h7.01V36.55h-57.942v2.696c-6.683-3.903-14.731-4.371-18.186-4.371zm0 1.698c5.706 0 14.052 1.215 19.884 5.885v-4.21h54.547v23.669h-3.976c-2.853-11.835-5.274-17.082-11.584-17.082h-1.816v58.95c0 5.806.433 6.587 6.83 6.811v4.912H183.52v-4.912c6.397-.224 6.829-1.005 6.829-6.811v-58.95h-1.815c-6.311 0-8.731 5.247-11.584 17.082h-3.976l-5.31-.006c-4.322-14.849-9.041-18.75-14.401-18.75-4.236 0-7.175 3.683-7.175 9.266 0 6.141 5.36 9.825 11.757 12.952 8.817 4.354 18.154 10.271 18.326 26.125-.172 13.845-6.57 25.456-25.069 25.679-7.262 0-14.955-1.786-20.229-6.364l-1.296-22.999h3.976c5.36 15.295 10.547 22.552 18.24 22.776l.21.003c4.796 0 7.485-3.766 7.571-9.158-.087-4.913-1.902-10.272-11.325-15.184-11.929-6.253-18.499-12.84-18.499-25.122 0-14.737 8.644-24.562 23.34-24.562z" fill="#777776"/><path d="M259.213 44.009c-6.231 0-9.525 11.366-9.525 32.869 0 21.811 3.205 32.87 9.525 32.87s9.525-11.059 9.525-32.87c0-21.503-3.294-32.869-9.525-32.869zm0 74.023c-21.027 0-32.142-14.231-32.142-41.154 0-26.923 11.115-41.154 32.142-41.154 21.329 0 32.143 13.846 32.143 41.154 0 26.923-11.115 41.154-32.143 41.154z" fill="#FFFFFE"/><path d="M259.213 108.899c-7.171 0-8.676-17.413-8.676-32.021 0-27.86 5.436-32.02 8.676-32.02 3.241 0 8.676 4.16 8.676 32.02 0 14.608-1.505 32.021-8.676 32.021zm0-74.024c-15.05 0-32.991 7.288-32.991 42.003 0 13.133 2.649 23.392 7.873 30.495 5.616 7.636 14.067 11.507 25.118 11.507 21.583 0 32.991-14.524 32.991-42.002 0-13.259-2.615-23.547-7.774-30.577-5.563-7.581-14.047-11.426-25.217-11.426zm0 75.721c8.991 0 10.374-18.645 10.374-33.718 0-14.179-1.383-33.717-10.374-33.717-8.99 0-10.373 19.538-10.373 33.717 0 15.073 1.383 33.718 10.373 33.718zm0-74.023c21.871 0 31.294 15.184 31.294 40.305 0 25.01-9.509 40.305-31.294 40.305-21.611 0-31.293-15.407-31.293-40.305 0-25.009 9.595-40.305 31.293-40.305z" fill="#777776"/><path d="M327.787 116.357l-.227-.493c-9.38-20.335-17.55-37.85-26.649-56.635v26.358c0 9.906.157 14.878.6 19.001.533 4.235 1.646 4.684 3.047 4.829l4.912.396v6.544h-22.878v-6.526l2.923-.303c1.311-.071 2.17-.435 2.527-4.697.441-4.334.515-9.438.515-19.244V49.971c0-5.487-.224-5.765-4.807-5.963l-.812-.034v-6.575h26.742l.218.519c4.901 11.633 10.48 23.079 16.387 35.197 1.46 2.993 2.947 6.043 4.458 9.167V68.17c0-9.91-.157-14.882-.6-19.001-.533-4.236-1.646-4.685-3.046-4.829l-4.912-.397v-6.544h22.877v6.527l-2.923.302c-1.311.072-2.169.435-2.527 4.697-.441 4.339-.515 9.442-.515 19.245v48.187h-15.31" fill="#FFFFFE"/><path d="M349.911 36.55h-24.575v8.177l1.561.125 4.15.335c.848.088 1.763.183 2.255 4.102.436 4.051.592 8.999.592 18.881v10.416c-.96-1.976-1.91-3.925-2.849-5.85-5.9-12.105-11.474-23.538-16.365-35.147l-.437-1.039H286.09v8.237l1.624.069c1.517.066 3.12.197 3.5.674.456.572.495 2.507.495 4.44v35.617c0 9.776-.074 14.86-.51 19.143-.325 3.874-.957 3.908-1.688 3.948l-.042.002-.042.004-2.161.224-1.522.157v8.141h24.574v-8.175l-1.56-.127-4.15-.335c-.848-.088-1.764-.183-2.257-4.102-.435-4.053-.591-9.002-.591-18.88V62.935c8.463 17.542 16.212 34.169 25.029 53.284l.455.987h16.702V68.17c0-9.779.073-14.864.51-19.144.324-3.874.956-3.908 1.687-3.948l.041-.002.042-.004 2.161-.223 1.524-.157V36.55zm-1.698 1.698v4.913l-2.161.223c-2.075.111-2.939 1.34-3.285 5.47-.432 4.243-.518 9.155-.518 19.316v47.338H328.33c-9.681-20.99-18.066-38.965-27.663-58.727h-.604v28.806c0 10.16.172 15.072.604 19.092.519 4.13 1.643 5.359 3.804 5.582l4.15.335v4.912h-21.18v-4.912l2.161-.224c2.075-.111 2.94-1.339 3.285-5.47.432-4.243.519-9.155.519-19.315V49.97c0-5.805-.432-6.586-5.619-6.809v-4.913h25.329c6.397 15.184 13.831 29.81 21.957 46.668h.519V68.17c0-10.161-.173-15.073-.606-19.092-.518-4.131-1.642-5.36-3.803-5.583l-4.149-.334v-4.913h21.179z" fill="#777776"/><path d="M586.56 32.428h-26.999v9.885a369.046 369.046 0 0 1-2.735-6.325l-1.5-3.56h-35.012v16.307l5.57.24.043.002c.005.298.007.629.007.993v34.86l-.871-3.621-1.397-5.806-10.416-42.975h-24.416L477.96 75.682c-.809 3.192-1.571 6.179-2.283 8.947V49.97c0-.364.002-.695.007-.993a.59.59 0 0 1 .043-.002l5.569-.24V32.428h-36.858l-1.009 4.562c-1.381 6.241-3.034 13.079-5.053 20.906l-.952 3.67-1.028-3.753c-2.275-8.421-3.882-14.848-5.203-20.822l-1.009-4.563h-37.637v16.307l5.57.24.043.002c.004.298.006.629.006.993v35.617c0 9.628-.07 14.617-.489 18.725l-.005.052-.004.052c-.011.131-.023.254-.034.37l-.212.022-5.22.54v15.98h47.391l.413-1.57v1.57h112.781v-16.1l-5.35-.432-2.557-.207a16.902 16.902 0 0 1-.085-.586c-.413-3.87-.566-8.873-.566-18.416v-4.462c5.599 11.831 11.131 23.741 17.164 36.821l1.56 3.382h23.461V68.17c0-9.635.071-14.625.49-18.725l.005-.053.004-.053c.011-.131.022-.253.034-.368l.21-.022 5.222-.538V32.428h-5.819" fill="#1A1919"/><path d="M499.336 82.952l-4.268-21.101-4.783 21.101h9.051zm66.799 33.405l-.228-.493c-9.385-20.346-17.558-37.866-26.649-56.636v26.359c0 9.909.157 14.881.6 19.001.533 4.236 1.647 4.684 3.047 4.829l4.911.396v6.544h-49.415v-6.52l4.731-.531c.583-.063.784-.26.886-.402.574-.809.03-3.152-.149-3.922l-2.964-13.188h-12.471l-3.052 13.739c-.358 1.617-.36 2.688-.008 3.18.119.167.362.4 1.091.481l5.681.644v6.519h-47.169v-6.574l.812-.034c4.582-.198 4.807-.477 4.807-5.963V59.943l-14.835 56.414h-8.649L411.49 60.074v25.513c0 9.899.158 14.872.601 19.001.532 4.236 1.646 4.684 3.047 4.829l4.911.396v6.544h-22.877v-6.526l2.923-.303c1.31-.071 2.169-.435 2.526-4.697.442-4.339.516-9.442.516-19.244V49.971c0-5.487-.225-5.766-4.807-5.963l-.812-.034v-6.575h28.674l.148.665c1.71 7.733 3.711 15.319 5.263 21.064l5.95 21.74 5.637-21.731c2.032-7.882 3.698-14.775 5.091-21.073l.148-.665h27.896v6.575l-.812.034c-4.582.197-4.807.476-4.807 5.963v53.815c0 4.282.328 5.129 1.602 5.549 1.649-.435 2.189-1.218 3.045-4.219 1.496-5.187 4.064-14.946 7.428-28.223l9.928-39.494h16.632l9.493 39.168 1.412 5.87c2.257 9.39 4.206 17.499 5.496 22.125.976 3.528 1.406 4.222 3.209 4.705.606-.347 1.172-1.268 1.438-4.436.441-4.339.515-9.442.515-19.244V49.971c0-5.487-.224-5.766-4.806-5.963l-.813-.034v-6.575h26.741l.219.519c4.901 11.633 10.481 23.079 16.388 35.197 1.459 2.994 2.945 6.043 4.457 9.167V68.17c0-9.907-.157-14.88-.6-19.002-.532-4.235-1.646-4.684-3.047-4.828l-4.911-.397v-6.544h22.876v6.527l-2.923.301c-1.31.072-2.17.436-2.525 4.698-.442 4.328-.517 9.433-.517 19.245v48.187h-15.308z" fill="#FFFFFE"/><path d="M491.347 82.103l3.674-16.205 3.278 16.205h-6.952zm96.91-45.553h-24.573v8.177l1.56.125 4.149.335c.849.088 1.765.183 2.256 4.102.437 4.058.593 9.007.593 18.881v10.418a5535.53 5535.53 0 0 0-2.85-5.852c-5.901-12.105-11.474-23.538-16.365-35.147l-.438-1.039h-28.153v8.236l1.625.07c1.517.066 3.12.197 3.501.674.456.572.494 2.507.494 4.44v35.617c0 9.773-.074 14.856-.51 19.143-.158 1.882-.429 3.08-.808 3.591-.983-.343-1.347-.981-2.177-3.983-1.29-4.626-3.243-12.753-5.505-22.164l-1.397-5.805-9.651-39.819h-17.96l-10.09 40.138c-3.356 13.247-5.922 22.997-7.42 28.19-.786 2.757-1.207 3.274-2.188 3.567-.543-.267-.795-.989-.795-4.66V49.97c0-1.933.038-3.868.494-4.44.381-.477 1.983-.608 3.501-.674l1.624-.07V36.55h-29.426l-.294 1.331c-1.392 6.289-3.056 13.173-5.087 21.044l-4.836 18.648-5.11-18.672c-2.297-8.498-3.917-14.982-5.253-21.02l-.294-1.331h-30.205v8.236l1.624.07c1.518.066 3.12.197 3.501.674.456.572.495 2.507.495 4.44v35.617c0 9.773-.074 14.856-.511 19.143-.325 3.874-.956 3.908-1.687 3.948l-.042.002-.042.004-2.161.224-1.522.157v8.14h24.573v-8.174l-1.56-.127-4.149-.335c-.849-.088-1.765-.183-2.257-4.102-.436-4.059-.592-9.007-.592-18.88V66.305l13.783 49.657.346 1.243h9.947l13.333-50.702v37.282c0 1.933-.039 3.869-.495 4.441-.381.478-1.983.609-3.501.674l-1.624.07v8.235h48.867v-8.125l-1.507-.17-4.927-.559c-.329-.037-.472-.109-.497-.131-.002-.003-.314-.418.147-2.505l2.903-13.072h11.112l2.814 12.519c.599 2.581.337 3.166.289 3.245h-.001c-.013 0-.097.035-.283.055l-3.984.447-1.508.17v8.126h51.112v-8.174l-1.561-.127-4.149-.335c-.848-.088-1.765-.183-2.256-4.102-.436-4.059-.592-9.007-.592-18.88V62.934c8.458 17.534 16.208 34.162 25.029 53.285l.455.986h16.701V68.17c0-9.78.074-14.865.511-19.144.324-3.874.956-3.908 1.687-3.948l.042-.002.041-.004 2.161-.223 1.523-.157V36.55zM489.222 83.8h11.152l-5.014-24.785h-.519L489.222 83.8zm97.338-45.552v4.913l-2.161.222c-2.075.112-2.94 1.341-3.285 5.471-.433 4.242-.519 9.155-.519 19.316v47.338h-13.918c-9.682-20.99-18.067-38.965-27.662-58.727h-.606v28.806c0 10.159.173 15.072.606 19.092.518 4.13 1.642 5.359 3.803 5.581l4.149.336v4.912H499.25v-4.912l3.977-.447c2.075-.223 2.247-2.009 1.469-5.359l-3.112-13.844h-13.831l-3.199 14.402c-.691 3.127-.173 4.467 1.816 4.69l4.927.558v4.912h-45.472v-4.912c5.188-.224 5.62-1.005 5.62-6.811V56.334h-.778l-15.561 59.174h-7.348l-16.425-59.174h-.691v29.253c0 10.159.173 15.072.605 19.092.519 4.13 1.642 5.359 3.804 5.581l4.149.336v4.912h-21.179v-4.912l2.161-.224c2.074-.112 2.939-1.339 3.285-5.47.432-4.243.519-9.156.519-19.315V49.97c0-5.805-.432-6.587-5.62-6.809v-4.913h27.145c1.556 7.033 3.371 14.067 5.272 21.101l6.57 24.004h.433l6.224-24.004c1.815-7.034 3.544-14.068 5.101-21.101h26.366v4.913c-5.187.222-5.619 1.004-5.619 6.809v53.815c0 4.269.241 5.818 2.427 6.43 2.279-.533 2.958-1.62 3.884-4.867 1.642-5.694 4.408-16.3 7.435-28.247l9.767-38.853h15.301l9.337 38.518c2.853 11.835 5.359 22.441 6.916 28.024 1.026 3.71 1.573 4.762 4.108 5.373 1.308-.497 1.923-1.939 2.201-5.261.432-4.243.519-9.156.519-19.315V49.97c0-5.805-.432-6.587-5.619-6.809v-4.913h25.329c6.396 15.184 13.831 29.81 21.957 46.668h.519V68.17c0-10.161-.173-15.074-.605-19.092-.519-4.131-1.643-5.36-3.804-5.583l-4.149-.334v-4.913h21.179z" fill="#777776"/></g></svg>